<?xml version="1.0" encoding="utf-8"?>
<!-- Generator: Adobe Illustrator 18.1.1, SVG Export Plug-In . SVG Version: 6.00 Build 0)  -->
<svg version="1.1" id="Layer_1" xmlns="http://www.w3.org/2000/svg" xmlns:xlink="http://www.w3.org/1999/xlink" x="0px" y="0px"
	 viewBox="196 42 560 475" enable-background="new 196 42 560 475" xml:space="preserve">
<g>
	<path d="M502.3,469.6h-52.5c-17.6,0-33.8-0.8-48.1-2.3c-14.9-1.6-30.6-4.9-46.6-9.8c-16.8-5.2-31.2-12.3-42.8-21.2
		c-12-9.2-22-21.8-29.7-37.5c-7.6-15.7-11.5-34-11.5-54.5c0-28.4,8.4-53.1,25-73.3c17.3-21.1,40.9-31.7,70-31.7
		c9.7,0,30.4,2.2,63,6.7c0.1,0,0.2,0,0.2,0c14,2.2,29.8,3.3,46.8,3.3s32.8-1.1,46.8-3.3c0.1,0,0.2,0,0.3,0c33.1-4.5,53.7-6.7,63-6.7
		c29.2,0,52.7,10.7,70,31.7c16.6,20.2,25,44.8,25,73.3c0,20.5-3.9,38.9-11.5,54.5c-7.6,15.7-17.6,28.3-29.7,37.5
		c-11.6,8.9-26,16-42.8,21.2c-16,4.9-31.7,8.2-46.6,9.8C536.1,468.8,519.9,469.6,502.3,469.6z M366,269.3c-20,0-35.4,6.8-46.8,20.8
		c-12.2,14.9-18.2,32.6-18.2,54.2c0,15.9,2.9,29.8,8.5,41.4c5.6,11.5,12.6,20.5,20.9,26.8c8.8,6.7,20,12.2,33.4,16.3
		c14.2,4.4,27.9,7.3,40.9,8.6c13.3,1.4,28.4,2.1,45,2.1h52.5c16.6,0,31.7-0.7,45-2.1c13-1.4,26.7-4.3,40.9-8.6
		c13.4-4.1,24.7-9.6,33.4-16.3c8.3-6.4,15.4-15.4,20.9-26.8c5.6-11.5,8.5-25.5,8.5-41.4c0-21.6-5.9-39.4-18.2-54.2
		c-11.5-14-26.8-20.8-46.8-20.8c-5.4,0-19.9,1.1-58.8,6.4c-15.5,2.4-32.7,3.6-51.2,3.6c-18.5,0-35.7-1.2-51.2-3.6
		C386.5,270.4,371.7,269.3,366,269.3z"/>
</g>
<g>
	<path d="M481,515c-16.4,0-31.6-0.3-45.1-1c-13.6-0.6-29-1.9-47.1-4c-18.2-2.1-35.1-5.4-50.3-9.9c-15.1-4.5-30.2-10.2-44.8-16.8
		c-15.6-7.1-29.7-16.6-41.9-28c-12.2-11.5-22.3-25-30-40.1c-13.9-27.7-21-64.8-21-110.2c0-49.7,13.7-92.4,40.8-127.1
		c-4.5-16.1-6.8-32.8-6.8-49.8c0-26.4,5.9-51.6,17.5-74.8c2.5-5.1,7.7-8.3,13.4-8.3c24.6,0,46.8,4.7,65.9,13.8
		c16.5,7.9,35.3,20,56.1,35.9c29.6-6.5,60.8-9.7,93-9.7c29.2,0,57.4,3,84,8.8c20.4-15.5,39-27.3,55.5-35.1
		c19-9.1,41.1-13.6,65.5-13.6c5.7,0,10.9,3.2,13.4,8.3c11.6,23.3,17.5,48.4,17.5,74.8c0,16.8-2.3,33.3-6.8,49.3
		C737.3,212.2,751,255.1,751,305c0,45.3-6.9,82.3-20.6,110.1c-8.8,17.9-21.2,33.5-36.9,46.5c-15.2,12.6-31.3,22.4-48,29.2
		c-16.1,6.6-35,11.9-56.1,15.7c-20.5,3.7-39.1,6.1-55.4,7.1C518.2,514.5,500.4,515,481,515z M275.5,75.3
		c-6.9,16.6-10.4,34.4-10.4,52.8c0,16.6,2.6,32.9,7.7,48.4c1.6,5,0.6,10.5-2.9,14.4c-26.2,30.6-38.9,67.9-38.9,114
		c0,40.7,6,73.3,17.8,96.7c6,11.9,14.1,22.6,23.8,31.8c9.8,9.2,21.1,16.8,33.8,22.6c13.3,6.1,27.1,11.3,40.9,15.4
		c13.5,4,28.6,7,45.1,8.8c17.2,1.9,32.3,3.2,45.1,3.8c13,0.6,27.7,0.9,43.7,0.9c18.8,0,36-0.5,51.3-1.4c15.1-0.9,32.5-3.1,51.8-6.7
		c19-3.5,35.9-8.2,50.1-14c13.8-5.6,27.3-13.9,40.2-24.5c12.4-10.2,22.1-22.6,29.1-36.6c11.6-23.6,17.5-56.2,17.5-96.8
		c0-46.3-12.7-83.8-38.9-114.7c-3.4-4-4.5-9.5-2.8-14.5c5.1-15.3,7.7-31.3,7.7-47.8c0-18.5-3.5-36.2-10.4-52.8
		c-16.1,1-30.6,4.5-43.1,10.5c-16,7.6-34.8,19.8-55.6,36.1c-3.6,2.8-8.3,3.8-12.8,2.8c-26.3-6.4-54.5-9.6-84-9.6
		c-32.4,0-63.7,3.5-93.1,10.5c-4.4,1.1-9.1,0-12.7-2.8c-21.4-16.8-40.3-29.2-56.3-36.9C306.3,79.8,291.7,76.3,275.5,75.3z"/>
</g>
<g>
	<path d="M384.5,317.7c3.1,0,5,0.7,7.1,2.7c4.2,3.8,6.9,7.7,8.4,11.8c2,5.5,3,10.7,3,15.5c0,4.8-1,10-3,15.5
		c-1.5,4.1-4.2,8-8.4,11.8c-2.1,2-4.1,2.7-7.1,2.7s-5-0.7-7.1-2.7c-4.2-3.8-6.9-7.7-8.4-11.8c-2-5.5-3-10.7-3-15.5
		c0-4.8,1-10,3-15.5c1.5-4.1,4.2-8,8.4-11.8C379.5,318.4,381.4,317.7,384.5,317.7 M384.5,287.7c-10.6,0-19.8,3.5-27.5,10.6
		c-7.7,7.1-13.1,15-16.3,23.8c-3.1,8.8-4.7,17.3-4.7,25.6c0,8.3,1.6,16.9,4.7,25.6c3.1,8.8,8.6,16.7,16.3,23.8
		c7.7,7.1,16.9,10.6,27.5,10.6s19.8-3.5,27.5-10.6c7.7-7.1,13.1-15,16.3-23.8c3.1-8.8,4.7-17.3,4.7-25.6c0-8.3-1.6-16.9-4.7-25.6
		c-3.1-8.8-8.6-16.7-16.3-23.8C404.3,291.2,395.1,287.7,384.5,287.7L384.5,287.7z"/>
</g>
<g>
	<path d="M567.5,317.7c3.1,0,5,0.7,7.1,2.7c4.2,3.8,6.9,7.7,8.4,11.8c2,5.5,3,10.7,3,15.5c0,4.8-1,10-3,15.5
		c-1.5,4.1-4.2,8-8.4,11.8c-2.1,2-4.1,2.7-7.1,2.7s-5-0.7-7.1-2.7c-4.2-3.8-6.9-7.7-8.4-11.8c-2-5.5-3-10.7-3-15.5
		c0-4.8,1-10,3-15.5c1.5-4.1,4.2-8,8.4-11.8C562.5,318.4,564.4,317.7,567.5,317.7 M567.5,287.7c-10.6,0-19.8,3.5-27.5,10.6
		c-7.7,7.1-13.1,15-16.3,23.8s-4.7,17.3-4.7,25.6c0,8.3,1.6,16.9,4.7,25.6s8.6,16.7,16.3,23.8c7.7,7.1,16.9,10.6,27.5,10.6
		s19.8-3.5,27.5-10.6c7.7-7.1,13.1-15,16.3-23.8s4.7-17.3,4.7-25.6c0-8.3-1.6-16.9-4.7-25.6s-8.6-16.7-16.3-23.8
		C587.3,291.2,578.1,287.7,567.5,287.7L567.5,287.7z"/>
</g>
</svg>
