<?xml version="1.0" encoding="utf-8"?>
<!-- Generator: Adobe Illustrator 18.1.1, SVG Export Plug-In . SVG Version: 6.00 Build 0)  -->
<svg version="1.1" id="Layer_1" xmlns="http://www.w3.org/2000/svg" xmlns:xlink="http://www.w3.org/1999/xlink" x="0px" y="0px"
	 viewBox="790 -464 560 560" enable-background="new 790 -464 560 560" xml:space="preserve">
<path d="M857.5-98.7l188.4,125.6V-85.3l-104.4-69.7L857.5-98.7z M838.1-143.7l60.3-40.3l-60.3-40.3V-143.7z M1094.1,26.9
	l188.4-125.6l-84.1-56.3l-104.4,69.7V26.9z M1070-127.1l85-56.9l-85-56.9L985-184L1070-127.1z M941.6-213.1l104.4-69.7v-112.2
	L857.5-269.3L941.6-213.1z M1241.6-184l60.3,40.3v-80.6L1241.6-184z M1198.4-213.1l84.1-56.3l-188.4-125.6v112.2L1198.4-213.1z
	 M1350-269.3v170.6c0,8.5-3.5,15.2-10.6,20L1083.4,91.9c-4.4,2.7-8.8,4.1-13.4,4.1s-9.1-1.3-13.4-4.1L800.6-78.7
	c-7.1-4.8-10.6-11.5-10.6-20v-170.6c0-8.5,3.5-15.2,10.6-20l255.9-170.6c4.4-2.7,8.8-4.1,13.4-4.1s9.1,1.3,13.4,4.1l255.9,170.6
	C1346.5-284.5,1350-277.8,1350-269.3z"/>
</svg>
