<?xml version="1.0" encoding="utf-8"?>
<!-- Generator: Adobe Illustrator 18.1.1, SVG Export Plug-In . SVG Version: 6.00 Build 0)  -->
<svg version="1.1" id="Layer_1" xmlns="http://www.w3.org/2000/svg" xmlns:xlink="http://www.w3.org/1999/xlink" x="0px" y="0px"
	 viewBox="590 -500 1792 1792" enable-background="new 590 -500 1792 1792" xml:space="preserve">
<path d="M806,669l603,402V712l-334-223L806,669z M744,525l193-129L744,267V525z M1563,1071l603-402l-269-180l-334,223V1071z
	 M1486,578l272-182l-272-182l-272,182L1486,578z M1075,303l334-223v-359L806,123L1075,303z M2035,396l193,129V267L2035,396z
	 M1897,303l269-180l-603-402V80L1897,303z M2382,123v546c0,27.3-11.3,48.7-34,64l-819,546c-14,8.7-28.3,13-43,13s-29-4.3-43-13
	L624,733c-22.7-15.3-34-36.7-34-64V123c0-27.3,11.3-48.7,34-64l819-546c14-8.7,28.3-13,43-13s29,4.3,43,13l819,546
	C2370.7,74.3,2382,95.7,2382,123z"/>
</svg>
