<?xml version="1.0" encoding="utf-8"?>
<!-- Generator: Adobe Illustrator 18.1.1, SVG Export Plug-In . SVG Version: 6.00 Build 0)  -->
<svg version="1.1" id="Layer_1" xmlns="http://www.w3.org/2000/svg" xmlns:xlink="http://www.w3.org/1999/xlink" x="0px" y="0px"
	 viewBox="220 60 520 440" enable-background="new 220 60 520 440" xml:space="preserve">
<path d="M420,360c0,8.3-1.3,16.9-3.9,25.6s-7.1,16.7-13.4,23.8S388.8,420,380,420s-16.3-3.5-22.7-10.6s-10.8-15-13.4-23.8
	S340,368.3,340,360s1.3-16.9,3.9-25.6s7.1-16.7,13.4-23.8S371.3,300,380,300s16.3,3.5,22.7,10.6s10.8,15,13.4,23.8
	S420,351.7,420,360z M620,360c0,8.3-1.3,16.9-3.9,25.6s-7.1,16.7-13.4,23.8S588.8,420,580,420s-16.3-3.5-22.7-10.6
	s-10.8-15-13.4-23.8S540,368.3,540,360s1.3-16.9,3.9-25.6s7.1-16.7,13.4-23.8S571.3,300,580,300s16.3,3.5,22.7,10.6
	s10.8,15,13.4,23.8S620,351.7,620,360z M670,360c0-25-7.2-46.3-21.6-63.8S614.6,270,590,270c-8.5,0-28.8,2.2-60.9,6.6
	c-14.8,2.3-31.2,3.4-49.1,3.4s-34.3-1.2-49.1-3.4c-31.7-4.4-52-6.6-60.9-6.6c-24.6,0-44.1,8.8-58.4,26.3S290,335,290,360
	c0,18.3,3.3,34.3,10,48s15.1,24.4,25.3,32.2s22.9,14.1,38.1,18.8s29.8,7.8,43.8,9.2s29.5,2.2,46.6,2.2h52.5
	c17.1,0,32.6-0.7,46.6-2.2s28.5-4.5,43.8-9.2s27.9-10.9,38.1-18.8s18.7-18.5,25.3-32.2S670,378.3,670,360z M740,305
	c0,43.1-6.3,77.6-19.1,103.4c-7.9,16-18.9,29.9-33,41.6s-28.8,20.6-44.1,26.9s-33,11.2-53.1,14.8s-38,5.9-53.6,6.9s-33,1.4-52.2,1.4
	c-16.3,0-31-0.3-44.4-0.9s-28.7-1.9-46.1-3.9s-33.3-5.1-47.7-9.4s-28.7-9.6-42.8-16.1s-26.8-14.9-37.8-25.3s-20-22.4-26.9-35.9
	C226.5,382.8,220,348.3,220,305c0-49.4,14.2-90.6,42.5-123.8c-5.6-17.1-8.4-34.8-8.4-53.1c0-24.2,5.3-46.9,15.9-68.1
	c22.5,0,42.3,4.1,59.4,12.3s36.8,21.1,59.1,38.6c30.6-7.3,62.8-10.9,96.6-10.9c30.8,0,60,3.3,87.5,10c21.9-17.1,41.3-29.7,58.4-37.8
	S667.7,60,690,60c10.6,21.3,15.9,44,15.9,68.1c0,18.1-2.8,35.6-8.4,52.5C725.8,214,740,255.4,740,305z"/>
</svg>
