<?xml version="1.0" encoding="utf-8"?>
<!-- Generator: Adobe Illustrator 18.1.1, SVG Export Plug-In . SVG Version: 6.00 Build 0)  -->
<svg version="1.1" id="Layer_1" xmlns="http://www.w3.org/2000/svg" xmlns:xlink="http://www.w3.org/1999/xlink" x="0px" y="0px"
	 viewBox="358 0 281.626 448.009" enable-background="new 358 0 281.626 448.009" xml:space="preserve">
<g>
	<path d="M630.696,256.296l-0.821-0.44l-0.317-0.712l-0.898-0.746l-3.534-2.054l-1.114-1.101l-0.13-0.783l1.703-1.836l-0.476-1.197
		l0.69-1.53l0.118-1.386l-0.107-1.417l-0.688-1.46l-0.785-1.258l-0.476-1.153l-0.334-2.665l-0.323-1.238l-0.957-1.686l-4.798-6.246
		l0.427-1.175l-0.942-1.123l-0.835-0.629l-0.188-0.342l0.131-1.298l-0.052-1.354l-0.771-1.825l-0.428-3.112l-0.715-1.19
		l-0.642-0.853l-0.061-0.174l0.723-0.994l-0.827-1.181l-1.509-1.618l-0.401-0.521l-0.291-0.477l-0.167-0.466l-0.049-0.567
		l0.238-2.641l-2.376-6.199l0.186-0.701l-0.037-0.216c-9.986-57.196-20.213-116.569-31.266-181.513l-0.14-0.822l-0.834-0.01
		c-62.954-0.727-125.904-1.445-188.85-2.159l-1.441-0.016l0.489,1.355c0.712,1.976,1.413,3.96,2.105,5.944l2.03,2.969l2.713,1.896
		l0.562,0.08l-0.026,0.463c-9.189,84.312-19.01,172.921-29.19,263.369l-0.009,0.08l0.003,0.079
		c1.94,40.926,3.961,82.941,6.18,128.449l0.062,1.254l3.004-0.846l1.63-0.805l0.68-0.008l1.319,1.969h1.688l0.39-1.064l0.099-0.192
		l0.79,0.43l4.715,1.089l1.167,0.436l-0.389,1.108l0.248,1.639l1.298,0.464l1.466,0.19l0.654,0.01l0.026-0.041l0.274,0.011
		l0.085,0.43l1.224,0.868l1.661-1.072l0.572-1.303l0.804-6.54l-0.121-3.573l0.141-1.383l0.665-2.8l0.164-1.42l0.111-0.526
		l0.69-0.951l0.236-1.013l-0.074-1.605l0.049-0.528l0.149-0.323l0.702-0.847l0.622-0.982l0.415-1.405l0.129-1.784l0.295-1.141
		l0.562-0.767l0.686-1.407l-0.323-0.841l0.506-0.339l0.145,0.756l1.184,0.592l0.955,0.025l0.694,0.115l1.254,0.677l0.608,0.784
		l2.135,6.209l0.352,1.497l-0.163,0.825l-0.597,0.851l-0.855,1.635l-0.649,1.759l-0.222,1.967l0.407,0.757l0.54,0.778l0.41,0.73
		l0.179,0.827l0.065,0.923l0.236,1.07l0.427,1.009l0.719,0.971l0.655,0.644l0.776,0.542l0.898,0.407l1.055,0.22l1.857,0.134
		l0.063-0.117l-0.214,1.163l0.777,1.48l3.403,3.219l0.581,1.894l-1.312,0.899l-3.266,0.884l-2.472,0.828l-2.363-0.443l-1.803-1.644
		l-1.405,0.552l-0.482,0.695l-0.308,0.181l-2.667,0.642l-1.991,0.847l-2.735,2.683l4.85,0.035l6.48-1.12h9.029l9.837-1.308
		l5.295-2.189l2.095-3.559l1.881-0.409l1.075-1.269l0.591-0.936l0.72-0.335l2.079-0.488l1.21-1.471l0.553-1.479l0.665-1.18
		l3.317-3.155l0.033-0.274h3.371l-3.689-2.152l-1.195-1.937l-1.307-3.838l-0.128-1.114l0.262-0.722l1.21-2.195l0.699-2.477
		l0.494-3.051l0.087-1.445l-0.146-1.24l-0.444-0.526l-0.684-0.635l-5.972-3.692l-0.946-0.721l-0.903-1.277l-1.534-2.852
		l-0.417-0.631l-3.638-3.625l-0.771-0.967l-0.662-1.027l-0.227-0.525l-0.062-0.401l0.129-0.752l0.263-0.784l1.474-3.235l0.211-0.718
		l-0.136-3.934l0.152-0.371c31.5-0.009,62.998-0.013,94.497-0.017c31.724-0.004,63.446-0.008,95.168-0.017h0.589l0.443-0.799
		l0.509-0.606l0.392-1.105l-0.215-1.396l-0.726-0.942l-0.874-3.799l-1.867-3.801l-2.231-3.114l-1.479-0.74l-0.517-0.686
		l-0.071-0.942l0.392-3.129l-0.184-0.984l-0.681-1.778l-0.077-0.366l0.124-0.471l0.84-1.192l0.519-1.08l0.436-6.669l0.481-2.902
		l1.69-2.246l-0.78-2.686l0.334-1.398l0.768-1.548l0.552-2.413l-0.157-1.334l-0.696-1.885l-0.117-0.495l-0.036-2.234l-0.146-1.19
		l-0.73-1.88l-2.562-3.574l-0.527-1.259l-2.023-9.56l-0.43-1.485l0.423-1.655l0.08-0.495l0.427-1.449l0.601-2.887l1.367-3.16
		l1.989-3.258l0.297-0.401l0.72-1.46l0.15-0.422l0.314-2.555l-0.539-1.932l0.188-1.613l0.671-1.365l0.279-1.482l-0.018-2.129
		l0.089-0.54l1.087-2.662l0.332-0.515l0.141-0.086l0.781-0.124l1.396-0.447l1.293-0.6l2.235-1.607l-0.084-0.054l1.017-0.667
		l0.921-0.979l0.375-1.417l-0.108-0.274l0.453-0.166l0.848-0.793l0.373-1.222L630.696,256.296z M405.932,431.072l0.294-0.173
		l0.209-0.303l0.358,0.326L405.932,431.072z M628.747,257.905l-0.334,0.123l-1.847,0.123l0.805,2.054l-0.084,0.32l-0.317,0.354
		l-0.084,0.055l-1.143-0.49l-1.933,0.496l-0.708,1.969l0.524,0.338l-0.596,0.28l-1.104,0.365l-1.094,0.173l-0.869,0.531l-0.63,0.978
		l-1.25,3.016l-0.196,1.035l0.018,2.137l-0.139,0.884l-0.757,1.538l-0.272,2.346l0.539,1.934l-0.212,1.855l-0.607,1.312
		l-2.362,3.784l-1.502,3.444l-0.644,3.022l-0.35,1.079l-0.732,3.117l0.562,1.938l2.025,9.582l0.666,1.633l2.556,3.562l0.568,1.395
		l0.114,0.896l0.037,2.288l0.186,0.882l0.654,1.717l0.104,0.878l-0.373,1.731l-0.763,1.538l-0.561,2.236l0.649,2.232l-1.384,1.838
		l-0.573,3.483l-0.422,6.395l-0.234,0.506l-0.995,1.413l-0.337,1.275l0.191,0.912l0.672,1.746l0.109,0.584l-0.378,3.019l0.13,1.729
		l1.153,1.527l1.46,0.73l1.812,2.512l1.697,3.399l0.945,4.109l0.679,0.88l0.061,0.391l-0.103,0.289l-0.349,0.415
		c-31.532,0.009-63.063,0.013-94.597,0.017c-31.722,0.004-63.445,0.009-95.168,0.017h-0.67l-0.825,2.01l0.14,4.057l-1.517,3.409
		l-0.338,0.989l-0.234,1.351l0.127,0.813l0.378,0.959l0.813,1.286l0.898,1.134l3.556,3.524l0.311,0.463l1.516,2.827l1.092,1.558
		l1.361,1.088l5.825,3.588l0.475,0.432l0.069,0.487l-0.063,1.119l-0.455,2.846l-0.564,2.088l-1.182,2.145l-0.346,0.849l-0.158,0.697
		l0.177,1.535l0.904,2.724v1.863l0.725,1.016l0.65,0.703l0.6,0.475l-0.016,0.133l-2.905,2.763l-0.958,1.611l-0.529,1.379
		l-0.569,0.691l-1.521,0.357l-1.551,0.698l-0.777,1.261l-1.545,0.902l-0.213,0.046l-0.531-0.091l-0.038-0.262l-0.497-0.859
		l-1.368-1.308l-0.514-0.937h-2.153l0.272,2.706l0.535,1.01l0.165,0.513l-0.758,2.288l2.174,0.19l0.012-0.001l-0.405,0.688
		l-4.306,1.811l-9.506,1.272h-1.049l1.099-0.297l2.805-1.923l-1.166-3.802l-3.544-3.354l-0.301-0.573l0.095-0.518l0.709-2.062
		l-0.228-1.209l-1.177-1.169h-1.296l-0.499,0.846l-1.034,1.277l-0.735-0.128l-0.545-0.235l-0.494-0.334l-0.446-0.429l-0.473-0.606
		l-0.279-0.632l-0.174-0.747l-0.065-0.914l-0.246-1.184l-0.615-1.186l-0.525-0.754l-0.09-0.169l0.096-0.99l0.532-1.462l0.725-1.402
		l0.801-1.142l0.329-1.663l-0.478-2.015l-2.271-6.62l-1.071-1.381l-1.919-1.034l-1.091-0.182l-0.628-0.026l-0.071-0.372l0.012-1.215
		l-0.105-1.302l-0.777-1.344l-3.396-0.636l1.251,2.733l-0.013,0.768l-0.3,0.593l-1.46,0.979l0.587,1.53l-0.181,0.383l-0.733,1
		l-0.416,1.606l-0.128,1.778l-0.233,0.891l-0.427,0.687l-0.742,0.896l-0.485,0.973l-0.093,1.009l0.067,1.467l-0.081,0.349
		l-0.704,0.969l-0.214,1.038l-0.151,1.334l-0.667,2.806l-0.184,1.713l0.121,3.56l-0.692,5.956l-0.1,0.228l-0.262-0.437l-2.056-0.079
		l-0.352,0.021l-0.738-0.082l-0.046-0.016l0.863-2.462l-3.069-1.144l-4.517-1.016l-2.997-1.63l-0.268,1.485l-0.794-1.185
		l-2.227,0.025l-1.778,0.899l-0.494,0.14c-2.193-44.993-4.194-86.591-6.115-127.112c10.178-90.421,19.996-179.008,29.187-263.347
		l0.137-2.351l-1.911-0.271l-2.03-1.419l-1.623-2.322c-0.521-1.494-1.048-2.988-1.581-4.478
		c62.189,0.706,124.379,1.415,186.576,2.133c10.985,64.543,21.156,123.592,31.089,180.482l-0.24,0.902l2.442,6.369l-0.213,2.354
		l0.075,0.873l0.301,0.938l0.46,0.792l0.558,0.727l1.396,1.491l-0.493,0.678l0.456,1.312l0.792,1.123l0.476,0.792l0.391,2.836
		l0.749,1.863l0.032,0.851l-0.179,1.775l0.706,1.294l0.921,0.647l0.116,0.139l-0.407,1.122l5.362,6.968l0.751,1.267l0.243,0.903
		l0.342,2.729l0.627,1.614l0.819,1.324l0.504,1.072l0.068,0.889l-0.074,0.863l-0.418,0.88l-0.454,1.202l0.295,0.742l-1.514,1.63
		l0.397,2.391l1.667,1.647l3.637,2.133l0.474,0.394l0.558,1.252l0.444,0.073L628.747,257.905z"/>
	<path d="M397.536,429.271l-3.812-2.109l-1.16,0.735l-0.62,0.553l-0.426,0.275l-0.833,0.127h-3.978l-7.159,1.176l-4.294,2.779
		l19.878-0.828l0.656-0.126l1.747-0.657V429.271z M393.138,430.06l0.575-0.523l0.081-0.051l0.919,0.509L393.138,430.06z"/>
</g>
</svg>
