<?xml version="1.0" encoding="utf-8"?>
<!-- Generator: Adobe Illustrator 18.1.1, SVG Export Plug-In . SVG Version: 6.00 Build 0)  -->
<svg version="1.1" id="Layer_1" xmlns="http://www.w3.org/2000/svg" xmlns:xlink="http://www.w3.org/1999/xlink" x="0px" y="0px"
	 viewBox="823.8 -420 492.5 400" enable-background="new 823.8 -420 492.5 400" xml:space="preserve">
<path d="M1316.3-372.5c-14,20.4-30.8,37.8-50.6,52.2c0.2,2.9,0.3,7.3,0.3,13.1c0,27.1-4,54.1-11.9,81.1s-19.9,52.9-36.1,77.7
	s-35.4,46.7-57.7,65.8s-49.2,34.3-80.6,45.6s-65.1,17-100.9,17c-56.5,0-108.1-15.1-155-45.3c7.3,0.8,15.4,1.3,24.4,1.3
	c46.9,0,88.7-14.4,125.3-43.1c-21.9-0.4-41.5-7.1-58.8-20.2s-29.2-29.6-35.6-49.8c6.9,1,13.2,1.6,19.1,1.6c9,0,17.8-1.2,26.6-3.4
	c-23.3-4.8-42.7-16.4-58-34.8s-23-39.8-23-64.2v-1.3c14.2,7.9,29.4,12.2,45.6,12.8c-13.8-9.2-24.7-21.2-32.8-35.9
	s-12.2-30.8-12.2-48.1c0-18.3,4.6-35.3,13.8-50.9c25.2,31,55.9,55.9,92,74.5s74.8,29,116.1,31.1c-1.7-7.9-2.5-15.6-2.5-23.1
	c0-27.9,9.8-51.7,29.5-71.4s43.5-29.5,71.4-29.5c29.2,0,53.8,10.6,73.8,31.9c22.7-4.4,44.1-12.5,64.1-24.4
	c-7.7,24-22.5,42.5-44.4,55.6C1277.5-359,1296.9-364.2,1316.3-372.5z"/>
</svg>
