<?xml version="1.0" encoding="utf-8"?>
<!-- Generator: Adobe Illustrator 18.1.1, SVG Export Plug-In . SVG Version: 6.00 Build 0)  -->
<svg version="1.1" id="Layer_1" xmlns="http://www.w3.org/2000/svg" xmlns:xlink="http://www.w3.org/1999/xlink" x="0px" y="0px"
	 viewBox="189 0 560 560" enable-background="new 189 0 560 560" xml:space="preserve">
<path d="M735.4,178.7l-258-173c-0.1,0-0.1-0.1-0.2-0.1c-0.1-0.1-0.3-0.2-0.4-0.3c-0.2-0.1-0.3-0.2-0.5-0.3c-0.1,0-0.1-0.1-0.2-0.1
	c-0.1,0-0.2-0.1-0.2-0.1c-0.2-0.1-0.3-0.2-0.5-0.2c-0.1-0.1-0.3-0.1-0.4-0.2c-0.2-0.1-0.3-0.1-0.5-0.2c-0.2-0.1-0.3-0.1-0.5-0.2
	c-0.2-0.1-0.3-0.1-0.5-0.2c-0.2-0.1-0.3-0.1-0.5-0.1c-0.2,0-0.3-0.1-0.5-0.1c-0.2,0-0.3-0.1-0.5-0.1c-0.2,0-0.3-0.1-0.5-0.1
	c-0.2,0-0.4-0.1-0.5-0.1c-0.2,0-0.3,0-0.5-0.1c-0.2,0-0.4,0-0.5,0c-0.2,0-0.3,0-0.5,0c-0.2,0-0.4,0-0.5,0c-0.2,0-0.3,0-0.5,0
	c-0.2,0-0.4,0-0.5,0c-0.2,0-0.3,0-0.5,0c-0.2,0-0.3,0-0.5,0.1c-0.2,0-0.3,0-0.5,0.1c-0.2,0-0.3,0.1-0.5,0.1c-0.2,0-0.3,0.1-0.5,0.1
	c-0.2,0-0.3,0.1-0.5,0.1c-0.2,0-0.3,0.1-0.5,0.1C464.4,3.9,464.2,4,464,4c-0.1,0.1-0.3,0.1-0.4,0.2c-0.2,0.1-0.3,0.1-0.5,0.2
	c-0.1,0.1-0.3,0.1-0.4,0.2c-0.2,0.1-0.3,0.2-0.5,0.3c-0.1,0-0.1,0.1-0.2,0.1c-0.1,0-0.1,0.1-0.2,0.1c-0.2,0.1-0.3,0.2-0.5,0.3
	c-0.1,0.1-0.3,0.2-0.4,0.3c-0.1,0-0.1,0.1-0.2,0.1l-258,173c-4.2,2.8-6.6,7.5-6.6,12.5v2v175v2c0,5,2.5,9.7,6.6,12.5l258,173
	c0.1,0,0.1,0.1,0.2,0.1c0.2,0.1,0.4,0.2,0.5,0.3c0.1,0.1,0.3,0.2,0.4,0.2c0.1,0,0.1,0.1,0.2,0.1c0.1,0,0.1,0,0.2,0.1
	c0.5,0.3,1,0.5,1.5,0.7c0,0,0,0,0,0c0.5,0.2,1,0.4,1.6,0.5c0.1,0,0.2,0.1,0.3,0.1c0.5,0.1,1,0.2,1.6,0.3c0.1,0,0.2,0,0.3,0
	c0.5,0.1,1.1,0.1,1.6,0.1c0,0,0,0,0,0c0,0,0,0,0,0s0,0,0,0c0,0,0,0,0,0c0.5,0,1.1,0,1.6-0.1c0.1,0,0.2,0,0.3,0
	c0.5-0.1,1-0.2,1.6-0.3c0.1,0,0.2-0.1,0.3-0.1c0.5-0.1,1.1-0.3,1.6-0.5c0,0,0,0,0,0c0.5-0.2,1-0.4,1.5-0.7c0.1,0,0.1,0,0.2-0.1
	c0.1,0,0.1-0.1,0.2-0.1c0.1-0.1,0.3-0.2,0.4-0.2c0.2-0.1,0.4-0.2,0.5-0.3c0.1,0,0.1-0.1,0.2-0.1l258-173c4.2-2.8,6.6-7.5,6.6-12.5
	v-2v-175v-2C742,186.2,739.5,181.5,735.4,178.7z M623.4,280.7l88.6-59.4v118.8L623.4,280.7z M596.5,262.6L484,187.2V46.3
	l217.6,145.9L596.5,262.6z M469,348.1l-100.6-67.4L469,213.2l100.6,67.4L469,348.1z M314.6,280.7L226,340.1V221.3L314.6,280.7z
	 M341.5,298.7L454,374.2v140.9L236.4,369.2L341.5,298.7z M454,187.2l-112.5,75.4l-105-70.4L454,46.3V187.2z M484,374.2l112.5-75.4
	l105,70.4L484,515.1V374.2z"/>
</svg>
