<?xml version="1.0" encoding="utf-8"?>
<!-- Generator: Adobe Illustrator 18.1.1, SVG Export Plug-In . SVG Version: 6.00 Build 0)  -->
<svg version="1.1" id="Layer_1" xmlns="http://www.w3.org/2000/svg" xmlns:xlink="http://www.w3.org/1999/xlink" x="0px" y="0px"
	 viewBox="590 -500 1792 1792" enable-background="new 590 -500 1792 1792" xml:space="preserve">
<path d="M2274-92c-44.7,65.3-98.7,121-162,167c0.7,9.3,1,23.3,1,42c0,86.7-12.7,173.2-38,259.5s-63.8,169.2-115.5,248.5
	S1846.3,774.5,1775,835.5s-157.3,109.7-258,146c-100.7,36.3-208.3,54.5-323,54.5c-180.7,0-346-48.3-496-145c23.3,2.7,49.3,4,78,4
	c150,0,283.7-46,401-138c-70-1.3-132.7-22.8-188-64.5S895.7,597.7,875,533c22,3.3,42.3,5,61,5c28.7,0,57-3.7,85-11
	c-74.7-15.3-136.5-52.5-185.5-111.5S762,288,762,210v-4c45.3,25.3,94,39,146,41c-44-29.3-79-67.7-105-115s-39-98.7-39-154
	c0-58.7,14.7-113,44-163C888.7-85.7,986.8-6.2,1102.5,53.5c115.7,59.7,239.5,92.8,371.5,99.5c-5.3-25.3-8-50-8-74
	c0-89.3,31.5-165.5,94.5-228.5S1699.7-244,1789-244c93.3,0,172,34,236,102c72.7-14,141-40,205-78c-24.7,76.7-72,136-142,178
	C2150-48.7,2212-65.3,2274-92z"/>
</svg>
