<?xml version="1.0" encoding="utf-8"?>
<!-- Generator: Adobe Illustrator 18.1.1, SVG Export Plug-In . SVG Version: 6.00 Build 0)  -->
<svg version="1.1" id="Layer_1" xmlns="http://www.w3.org/2000/svg" xmlns:xlink="http://www.w3.org/1999/xlink" x="0px" y="0px"
	 viewBox="0 0 336 121" enable-background="new 0 0 336 121" xml:space="preserve">
<g>
	<path d="M13.714,48h3.515c3.758,0,6.673-0.923,8.734-4.378C27.115,41.561,27,40.214,27,37.911V4.092c0-1.939-0.818-3.03-3-3.03
		c-2.182,0-3,1.091-3,3.03v34.789C21,41.79,19.593,42,17.047,42h-3.333C10.138,42,9,41.184,9,37.668V29.79
		c0-1.939-0.818-3.03-3-3.03c-2.182,0-3,1.091-3,3.03v8.788c0,2.424,0.539,4.014,2.054,6.014C7.236,47.501,10.32,48,13.714,48z"/>
	<path d="M62.081,4.152c-0.424-1.576-1.151-3.091-3.151-3.091c-1.939,0-2.606,1.455-3.091,3.091L43.959,45.184
		c-0.424,1.455,1.212,3.03,2.909,3.03c1.879,0,2.849-1.531,3.273-2.986L52.445,38h12.909l2.243,7.229
		c0.424,1.455,1.394,3.008,3.273,3.008c1.697,0,3.333-1.587,2.909-3.041L62.081,4.152z M54.142,32l4.728-17h0.121l4.667,17H54.142z"
		/>
	<path d="M100.206,9.606C101.357,7.304,101.782,7,104.388,7h10.122c1.394,0,3.03-0.818,3.03-3c0-2.303-1.697-3-3.03-3h-10.304
		c-4.667,0-7.273,1.667-9.333,5.849l-5.576,11.228c-1.212,2.424-1.697,4.068-1.697,6.735c0,2.364,0.606,4.307,1.637,6.368
		l5.576,11.168C96.751,46.287,99.357,48,103.903,48h10.606c1.394,0,3.03-0.818,3.03-3c0-2.303-1.697-3-3.03-3h-9.879
		c-2.727,0-3.333-0.105-4.545-2.59l-5.152-10.447c-0.727-1.455-1.272-2.466-1.272-4.162c0-1.879,0.485-2.991,1.272-4.627
		L100.206,9.606z"/>
	<path d="M155.119,1h-17.818C133.967,1,131,3.789,131,7.122v35.032c0,3.394,2.846,5.846,6.301,5.846h17.818
		c3.455,0,5.881-2.453,5.881-5.846V7.122C161,3.789,158.453,1,155.119,1z M151.754,7L137,35.537V7H151.754z M140.666,42L155,13.739
		V42H140.666z"/>
	<path d="M246.459,35.501c0-4.485-0.546-7.644-4-10.917c3.212-2.848,4-6.065,4-9.58C246.459,6.459,242.399,1,233.49,1H175v47h58.49
		C241.186,48,246.459,43.44,246.459,35.501z M181,7h52.49c5.515,0,6.909,3.106,6.909,8.197c0,4.606-2.546,6.803-6.909,6.803H181V7z
		 M181,28h52.49c5.515,0,6.909,2.606,6.909,7.697c0,4.606-2.546,6.303-6.909,6.303H181V28z"/>
	<path d="M23.108,79.96C21.047,75.838,18.684,74,13.956,74H3.834c-1.878,0-3.515,0.818-3.515,3c0,2.303,1.697,3,3.697,3H6v35H3.35
		c-1.576,0-3.03,0.818-3.03,3s1.455,3,3.03,3h10.061c4.728,0,7.455-1.419,9.576-5.723l5.515-11.042
		c1.091-2.182,1.758-4.25,1.758-6.673c0-2.788-0.606-4.498-1.818-6.983L23.108,79.96z M23.047,101.555l-5.333,10.843
		c-1.091,2.242-1.697,2.602-4.243,2.602H12V80h1.047c2.788,0,3.333-0.132,4.606,2.474l5.03,10.208
		c0.849,1.758,1.515,2.891,1.515,4.952C24.199,99.148,23.714,100.162,23.047,101.555z"/>
	<path d="M62.081,76.888c-0.424-1.576-1.151-3.092-3.151-3.092c-1.939,0-2.606,1.455-3.091,3.092l-11.879,41.031
		c-0.424,1.454,1.212,3.03,2.909,3.03c1.879,0,2.849-1.399,3.273-2.853L52.445,111h12.909l2.243,7.096
		c0.424,1.454,1.394,2.942,3.273,2.942c1.697,0,3.333-1.62,2.909-3.075L62.081,76.888z M54.142,105l4.728-17h0.121l4.667,17H54.142z
		"/>
	<path d="M114.5,73.796c-2.182,0-3.5,1.092-3.5,3.031v9.697l-8.5,23.151L94,86.525v-9.697c0-1.939-0.818-3.031-3-3.031
		c-2.182,0-3,1.092-3,3.031v9.575c0,0.788-0.14,1.637,0.164,2.364l11.476,29.515c0.606,1.516,1.101,2.667,2.98,2.667
		s2.399-1.151,3.005-2.667l11.794-29.515c0.303-0.728,0.581-1.576,0.581-2.364v-9.575C118,74.888,116.682,73.796,114.5,73.796z"/>
	<path d="M158.15,80c1.576,0,3.03-0.818,3.03-3c0-2.183-1.455-3-3.03-3h-23.88c-1.576,0-3.03,0.818-3.03,3c0,2.182,1.455,3,3.03,3
		H143v35h-8.73c-1.576,0-3.03,0.818-3.03,3s1.455,3,3.03,3h23.88c1.576,0,3.03-0.818,3.03-3s-1.455-3-3.03-3H149V80H158.15z"/>
	<path d="M197.669,79.96c-2.062-4.122-4.425-5.96-9.152-5.96h-10.121c-1.879,0-3.516,0.818-3.516,3c0,2.303,1.697,3,3.697,3H181v35
		h-3.09c-1.575,0-3.03,0.818-3.03,3s1.455,3,3.03,3h10.062c4.727,0,7.454-1.419,9.575-5.723l5.516-11.042
		c1.091-2.182,1.758-4.25,1.758-6.673c0-2.788-0.606-4.498-1.818-6.983L197.669,79.96z M197.607,101.555l-5.333,10.843
		c-1.091,2.242-1.697,2.602-4.242,2.602H187V80h0.607c2.788,0,3.334-0.132,4.606,2.474l5.03,10.208
		c0.849,1.758,1.516,2.891,1.516,4.952C198.76,99.148,198.274,100.162,197.607,101.555z"/>
	<path d="M226.641,80h12.85c1.879,0,2.909,0.232,2.909,2.292c0,1.697,1.091,2.813,2.909,2.813c2.182,0,3.151-1.594,3.151-3.533
		c0-2.121-1.272-4.27-2.849-5.665c-1.758-1.515-3.697-1.907-6-1.907h-12.849c-1.939,0-3.334-0.102-5.031,0.99
		c-2.061,1.333-3.212,3.343-3.212,5.767c0,2.121,0.728,3.308,2,4.944l20.789,26.714c0.242,0.364,1.091,1.323,1.091,1.807
		c0,0.909-1.516,0.777-2,0.777h-13.152c-1.697,0-2.667-0.299-2.667-2.116c0-1.637-1.091-3.12-2.849-3.12
		c-2.121,0-3.212,1.683-3.212,3.623c0,2.121,1.212,4.322,2.849,5.655c1.818,1.516,3.818,1.958,6.121,1.958h13.334
		c4.182,0,7.637-2.328,7.637-6.874c0-2.061-0.909-3.468-2.121-5.043l-20.85-26.734c-0.242-0.363-0.909-1.023-0.909-1.568
		C224.58,79.75,225.975,80,226.641,80z"/>
	<path d="M286.04,74h-17.819c-3.333,0-6.221,2.524-6.221,5.858v35.031c0,3.394,2.767,6.111,6.221,6.111h17.819
		c3.454,0,5.96-2.718,5.96-6.111V79.858C292,76.524,289.373,74,286.04,74z M286.04,80.082l-0.44-0.224h0.44V80.082z M282.888,80
		L268,108.695V80H282.888z M271.801,115L286,86.894V115H271.801z"/>
	<path d="M332.87,73.857c-2.182,0-3.08,1.299-3.08,3.239L329.68,111h-0.061L313.8,74H306v43.919c0,1.939,0.818,3.03,3,3.03
		s3-1.091,3-3.03V85l0,0v-0.354L327.801,121H336V76.888C336,74.949,335.052,73.857,332.87,73.857z"/>
</g>
<text transform="matrix(1 0 0 1 205 -50.6665)" font-family="'OCRAStd'" font-size="12"> </text>
</svg>
