<?xml version="1.0" encoding="utf-8"?>
<!-- Generator: Adobe Illustrator 18.1.1, SVG Export Plug-In . SVG Version: 6.00 Build 0)  -->
<svg version="1.1" id="Layer_1" xmlns="http://www.w3.org/2000/svg" xmlns:xlink="http://www.w3.org/1999/xlink" x="0px" y="0px"
	 viewBox="0 0 622.469 254.813" enable-background="new 0 0 622.469 254.813" xml:space="preserve">
<rect x="-3492.106" y="-1225.939" opacity="0.42" fill="none" width="1400" height="384.752"/>
<text transform="matrix(1 0 0 1 -3473.106 -1181.9392)"><tspan x="0" y="0" fill="#B491AA" font-family="'strings'" font-size="50" letter-spacing="32"></tspan><tspan x="0" y="76.8" fill="#B491AA" font-family="'strings'" font-size="50" letter-spacing="32"></tspan><tspan x="0" y="153.6" fill="#B491AA" font-family="'strings'" font-size="50" letter-spacing="32"></tspan><tspan x="0" y="230.4" fill="#B491AA" font-family="'strings'" font-size="50" letter-spacing="32"></tspan><tspan x="0" y="307.2" fill="#B491AA" font-family="'strings'" font-size="50" letter-spacing="32"></tspan></text>
<g>
</g>
<text transform="matrix(1 0 0 1 7.294 37.7402)" fill="#B491AA" font-family="'strings'" font-size="36"></text>
<text transform="matrix(1 0 0 1 150.5233 37.7402)" fill="#B491AA" font-family="'strings'" font-size="36"></text>
<text transform="matrix(1 0 0 1 293.7521 37.7402)" fill="#B491AA" font-family="'strings'" font-size="36"></text>
<text transform="matrix(1 0 0 1 436.9815 37.7402)" fill="#B491AA" font-family="'strings'" font-size="36"></text>
<text transform="matrix(1 0 0 1 580.2105 37.7402)" fill="#B491AA" font-family="'strings'" font-size="36"></text>
<text transform="matrix(1 0 0 1 7.294 139.5402)" fill="#B491AA" font-family="'strings'" font-size="36"></text>
<text transform="matrix(1 0 0 1 150.5233 139.5402)" fill="#8853CE" font-family="'strings'" font-size="36"></text>
<text transform="matrix(1 0 0 1 293.7521 139.5402)" fill="#8853CE" font-family="'strings'" font-size="36"></text>
<text transform="matrix(1 0 0 1 436.9815 139.5402)" fill="#8853CE" font-family="'strings'" font-size="36"></text>
<text transform="matrix(1 0 0 1 580.2105 139.5402)" fill="#B491AA" font-family="'strings'" font-size="36"></text>
<text transform="matrix(1 0 0 1 7.294 245.5402)" fill="#B491AA" font-family="'strings'" font-size="36"></text>
<text transform="matrix(1 0 0 1 150.5233 245.5402)" fill="#B491AA" font-family="'strings'" font-size="36"></text>
<text transform="matrix(1 0 0 1 293.7521 245.5402)" fill="#B491AA" font-family="'strings'" font-size="36"></text>
<text transform="matrix(1 0 0 1 436.9815 245.5402)" fill="#B491AA" font-family="'strings'" font-size="36"></text>
<text transform="matrix(1 0 0 1 580.2105 245.5402)" fill="#B491AA" font-family="'strings'" font-size="36"></text>
</svg>
